<svg width="30" height="30" viewBox="0 0 30 30" fill="none" xmlns="http://www.w3.org/2000/svg">
<path fill-rule="evenodd" clip-rule="evenodd" d="M15 30C23.2843 30 30 23.2843 30 15C30 6.71573 23.2843 0 15 0C6.71573 0 0 6.71573 0 15C0 23.2843 6.71573 30 15 30ZM22.4161 20.9401V18.6901C22.4252 18.3223 22.2988 17.9639 22.061 17.6832C21.8231 17.4025 21.4904 17.219 21.1261 17.1676C20.406 17.0726 19.699 16.8965 19.0186 16.6426C18.7501 16.5417 18.4584 16.5198 18.1779 16.5797C17.8975 16.6395 17.64 16.7784 17.4361 16.9801L16.4836 17.9326C14.6059 16.8649 13.0513 15.3102 11.9836 13.4326L12.9361 12.4801C13.1377 12.2762 13.2767 12.0187 13.3365 11.7382C13.3963 11.4578 13.3745 11.166 13.2736 10.8976C13.0197 10.2171 12.8436 9.51013 12.7486 8.79008C12.6976 8.42967 12.5174 8.10007 12.2414 7.86273C11.9654 7.62539 11.6126 7.4965 11.2486 7.50008H8.99859C8.79034 7.50028 8.58442 7.54383 8.39393 7.62797C8.20344 7.71211 8.03256 7.835 7.89216 7.9888C7.75177 8.1426 7.64493 8.32395 7.57846 8.5213C7.51199 8.71865 7.48735 8.92768 7.50609 9.13508C7.75227 11.4533 8.54107 13.681 9.80859 15.6376C10.9601 17.4497 12.4965 18.9861 14.3086 20.1376C16.2563 21.4007 18.4732 22.1893 20.7811 22.4401C20.9891 22.4589 21.1988 22.434 21.3966 22.3671C21.5945 22.3002 21.7762 22.1927 21.9301 22.0515C22.0841 21.9103 22.2068 21.7385 22.2905 21.5471C22.3741 21.3557 22.4169 21.149 22.4161 20.9401Z" fill="#F49A3C"/>
</svg>
