<svg width="55" height="45" viewBox="0 0 55 45" fill="none" xmlns="http://www.w3.org/2000/svg">
<path opacity="0.2" d="M33.9531 21.2001L33.9531 0.800121L54.3531 0.800123L54.3531 15.2001C54.3531 20.8001 53.4198 25.9335 51.5531 30.6001C49.6865 35.2668 46.5531 39.8001 42.1531 44.2001L34.5531 38.2001C39.7531 32.4668 42.6865 26.8001 43.3531 21.2001L33.9531 21.2001ZM0.753122 21.2001L0.753124 0.800118L21.1531 0.80012L21.1531 15.2001C21.1531 20.8001 20.2198 25.9335 18.3531 30.6001C16.4865 35.2668 13.3531 39.8001 8.95312 44.2001L1.35313 38.2001C6.55313 32.4668 9.48646 26.8001 10.1531 21.2001L0.753122 21.2001Z" fill="#BDD6B2"/>
</svg>
