<?xml version="1.0" encoding="UTF-8"?>
<svg viewBox="0 0 20 20" fill="none" xmlns="http://www.w3.org/2000/svg">
<path fill-rule="evenodd" clip-rule="evenodd" d="M7 14C3.13401 14 -3.9926e-07 10.866 -5.68248e-07 7C-7.37236e-07 3.13401 3.13401 -1.36992e-07 7 -3.0598e-07C10.866 -4.74968e-07 14 3.13401 14 7L14 9L16 9L16 11L18 11L18 13L20 13L20 20L14.5858 20L8.43778 13.852C7.96847 13.95 7.48731 14 7 14ZM14 11L12 11L12 7C12 4.23858 9.76142 2 7 2C4.23858 2 2 4.23858 2 7C2 9.76142 4.23858 12 7 12C7.49863 12 7.98638 11.9273 8.45287 11.7859L9.02632 11.6121L15.4142 18L18 18L18 15L16 15L16 13L14 13L14 11ZM7 9C8.10457 9 9 8.10457 9 7C9 5.89543 8.10457 5 7 5C5.89543 5 5 5.89543 5 7C5 8.10457 5.89543 9 7 9Z" fill="black"/>
</svg>
